PathFileType	4	(X/Y/Z)	./resultDataOpenSim/trcMotMarkerGrf/sub09/qtm-05-05.trc
DataRate	CameraRate	NumFrames	NumMarkers	Units	OrigDataRate	OrigDataStartFrame	OrigNumFrames
250.000000	250.000000	8	24	m	250.000000	196	521
Frame#	Time	L.Toe.Tip			R.Toe.Tip			L.Ankle.Lat			R.Ankle.Lat			L.Ankle.Med			R.Ankle.Med			L.Heel			R.Heel			L.Knee.Lat			R.Knee.Lat			L.Knee.Med			R.Knee.Med			L.Thigh.Upper			R.Thigh.Upper			L.ASIS			R.ASIS			V.Sacral			L.Acromium			R.Acromium			C7			L.Elbow			R.Elbow			L.Wrist.Lat			R.Wrist.Lat
		X1	Y1	Z1	X2	Y2	Z2	X3	Y3	Z3	X4	Y4	Z4	X5	Y5	Z5	X6	Y6	Z6	X7	Y7	Z7	X8	Y8	Z8	X9	Y9	Z9	X10	Y10	Z10	X11	Y11	Z11	X12	Y12	Z12	X13	Y13	Z13	X14	Y14	Z14	X15	Y15	Z15	X16	Y16	Z16	X17	Y17	Z17	X18	Y18	Z18	X19	Y19	Z19	X20	Y20	Z20	X21	Y21	Z21	X22	Y22	Z22	X23	Y23	Z23	X24	Y24	Z24

196	0.78	0.13129369	-0.057390879	0.052078992	-0.64606583	0.048903524	0.1504171	-0.017304804	-0.026723172	0.008432788	-0.73276819	0.16607224	0.18438878	5.0455534e-05	-0.0074622261	0.10370519	-0.68307249	0.1713677	0.099657946	-0.088378775	-0.063542685	0.051911665	-0.78767933	0.19619148	0.12371824	-0.012133867	0.38949765	-0.046495185	-0.32645467	0.36434699	0.25635826	-0.018455143	0.39164558	0.080036065	-0.32326719	0.34413189	0.13079885	-0.20932446	0.76150523	-0.088455852	-0.26175635	0.75415625	0.28733797	-0.14357392	0.8440501	-0.01856184	-0.14823859	0.83406028	0.22270237	-0.31751816	0.89732678	0.088080801	-0.18066709	1.2913149	-0.078843165	-0.20287348	1.3081565	0.25292558	-0.25463889	1.3479999	0.085710256	-0.35943635	0.97578069	-0.135307	-0.33384779	0.95464073	0.33569182	-0.28535827	0.73155331	-0.20048116	-0.10006469	0.80398047	0.3169982
197	0.784	0.13172123	-0.057719998	0.051994393	-0.64331698	0.050675804	0.15115473	-0.016650951	-0.026863674	0.0085573672	-0.7252325	0.17156776	0.18593324	0.00081603493	-0.0076199783	0.10381112	-0.67534912	0.17542366	0.10127872	-0.088102446	-0.063413705	0.051904773	-0.77915582	0.20365166	0.1256243	-0.0057447612	0.38889225	-0.047118011	-0.31629542	0.36289037	0.25712294	-0.011346511	0.39206561	0.078889362	-0.31300312	0.34195177	0.13141022	-0.2041714	0.76208103	-0.089671192	-0.25421065	0.75266252	0.28665843	-0.13749554	0.84462683	-0.019736433	-0.14201238	0.83281485	0.22148064	-0.31154492	0.89685709	0.087901879	-0.17376589	1.2906662	-0.079088048	-0.19513176	1.307784	0.25264296	-0.24743398	1.3473954	0.085227197	-0.35188274	0.97474649	-0.13543415	-0.32758214	0.95510929	0.33493126	-0.27694531	0.73058074	-0.20059449	-0.096975055	0.79996058	0.31700914
198	0.788	0.13191752	-0.057992175	0.052151346	-0.64035268	0.052508334	0.15194922	-0.016335916	-0.027029252	0.0087129496	-0.717168	0.17697793	0.18754162	0.0011791642	-0.0078143075	0.10398222	-0.66713552	0.1793029	0.10295109	-0.088105323	-0.063229897	0.051759599	-0.77002773	0.21091264	0.12763478	8.362615e-05	0.38791315	-0.047543466	-0.30582714	0.36140834	0.25771283	-0.0044613105	0.39202019	0.077985474	-0.30259643	0.33998417	0.13188541	-0.19889797	0.76245027	-0.090654868	-0.24657686	0.75123668	0.28583572	-0.13138373	0.84520586	-0.020847673	-0.13595707	0.83171471	0.22029014	-0.30560825	0.89645623	0.087712286	-0.16691081	1.2901329	-0.079303189	-0.18738399	1.3075028	0.25239385	-0.24038696	1.3469437	0.08496691	-0.34430502	0.97377021	-0.1355495	-0.32131025	0.95571092	0.33422781	-0.26844486	0.72971019	-0.20065626	-0.094045653	0.79603065	0.31698831
199	0.792	0.13195529	-0.058210635	0.052450833	-0.63709872	0.054392775	0.15276715	-0.016253481	-0.027186599	0.0088855921	-0.70857719	0.18224225	0.18919971	0.0012124043	-0.0080186766	0.10420425	-0.65834877	0.1830052	0.10466385	-0.088223867	-0.063147415	0.051596158	-0.76010757	0.21794262	0.12958335	0.0053070174	0.38679099	-0.047984252	-0.29506645	0.35992153	0.25814542	0.0022053657	0.39152493	0.077354378	-0.29193645	0.33825343	0.1323018	-0.19341695	0.76259993	-0.091367802	-0.23878876	0.74986484	0.28483177	-0.12527937	0.84575412	-0.021873995	-0.12994852	0.83080372	0.21920619	-0.29970374	0.89612907	0.087514475	-0.16009747	1.2897057	-0.079498244	-0.17966195	1.3072982	0.2521781	-0.23349824	1.3466643	0.08494021	-0.33671869	0.9728515	-0.1356506	-0.31501696	0.95643284	0.33365433	-0.2598544	0.72894223	-0.20066551	-0.091179833	0.79223345	0.31696187
200	0.796	0.13195391	-0.058389058	0.05275748	-0.63351817	0.056305762	0.15359621	-0.016188197	-0.027350714	0.009071046	-0.69943395	0.18732314	0.1908997	0.0011487022	-0.0082256196	0.10444739	-0.64901103	0.18651303	0.10640396	-0.088315756	-0.063166317	0.051524467	-0.74946497	0.22482444	0.13152875	0.0099005873	0.38574183	-0.048571866	-0.28403358	0.35847471	0.25843435	0.0085152322	0.39058334	0.076909212	-0.28099425	0.33677189	0.13265578	-0.1877247	0.76256317	-0.091834515	-0.23110046	0.74861704	0.28379631	-0.11920623	0.84623966	-0.02279195	-0.12393192	0.8301021	0.21826057	-0.29382706	0.89588082	0.087311014	-0.15331565	1.2893769	-0.079678386	-0.17198618	1.3071592	0.25199427	-0.22664386	1.3465273	0.084941909	-0.32917179	0.97200686	-0.13571303	-0.30869469	0.95725011	0.33324242	-0.25116515	0.72827065	-0.20062058	-0.088288712	0.78859583	0.31696097
201	0.8	0.13199752	-0.058536497	0.052984915	-0.6296124	0.058223951	0.15443984	-0.015976547	-0.027545577	0.0092641125	-0.68969945	0.19221285	0.1926341	0.0012026102	-0.008433745	0.10468067	-0.63926749	0.18982145	0.10814129	-0.088331399	-0.063183934	0.051562384	-0.7382676	0.23164222	0.13359623	0.014050764	0.38475778	-0.049219337	-0.27273722	0.35713608	0.25857332	0.014327104	0.38925862	0.076548628	-0.26987812	0.33552078	0.13285685	-0.18189557	0.76239242	-0.092111039	-0.22388059	0.74760152	0.28294379	-0.1131515	0.8466473	-0.023574359	-0.11793698	0.82960885	0.21744369	-0.28797407	0.89571693	0.087104603	-0.1465565	1.2891456	-0.079841331	-0.16437578	1.3070845	0.25183604	-0.21972035	1.3464973	0.084799135	-0.32169734	0.97125132	-0.13573123	-0.30234913	0.9581335	0.3329776	-0.24237107	0.72769417	-0.20051506	-0.085354152	0.78512127	0.31698959
202	0.804	0.13209684	-0.058652314	0.053118196	-0.62535212	0.060152272	0.15531938	-0.01559817	-0.027768352	0.0094452158	-0.6793639	0.1969295	0.19438265	0.0014427915	-0.0086394102	0.10488053	-0.62922991	0.19298696	0.1098151	-0.088288327	-0.063130774	0.051655325	-0.72661983	0.238383	0.13580444	0.018005261	0.38371402	-0.049721856	-0.26117634	0.35598684	0.25854988	0.019583116	0.38770435	0.076217814	-0.25872878	0.3344841	0.13283538	-0.17602051	0.76214307	-0.092270385	-0.21712151	0.74688267	0.28223146	-0.10711072	0.84697863	-0.024219851	-0.11201198	0.82932408	0.21674604	-0.28214064	0.89564268	0.08689801	-0.13981393	1.2890202	-0.079987236	-0.15686459	1.3070849	0.25169613	-0.21275394	1.3465707	0.084533274	-0.31425025	0.97058335	-0.13576631	-0.2959868	0.95905763	0.33283339	-0.23347478	0.72722527	-0.20034232	-0.08241994	0.7818117	0.31703784
203	0.808	0.13221381	-0.058734336	0.053178397	-0.62065325	0.062120693	0.15628639	-0.015148556	-0.027998334	0.0095841017	-0.66849826	0.20148743	0.19611179	0.0017945985	-0.0088357236	0.1050324	-0.6189355	0.1961211	0.11135143	-0.088224773	-0.063023947	0.051729643	-0.71458621	0.24498244	0.13808426	0.021805639	0.38258385	-0.049911066	-0.24935286	0.35505995	0.25836427	0.024292592	0.38612365	0.075907132	-0.24761299	0.33367511	0.1325957	-0.17014803	0.76186647	-0.092385719	-0.21040974	0.74649759	0.28132145	-0.10109437	0.84724554	-0.02474789	-0.10619453	0.82925437	0.21616413	-0.27632255	0.89566284	0.086694005	-0.13308486	1.289011	-0.080126363	-0.14949593	1.3071776	0.25157126	-0.20584965	1.3467753	0.084289189	-0.30672807	0.96998766	-0.13592135	-0.28960689	0.96000446	0.33279487	-0.22448661	0.72688378	-0.20009953	-0.079546382	0.77868226	0.3171126
